<?xml version="1.0" encoding="UTF-8" standalone="no"?>
<!-- Created with Inkscape (http://www.inkscape.org/) -->

<svg
   xmlns:dc="http://purl.org/dc/elements/1.1/"
   xmlns:cc="http://creativecommons.org/ns#"
   xmlns:rdf="http://www.w3.org/1999/02/22-rdf-syntax-ns#"
   xmlns:svg="http://www.w3.org/2000/svg"
   xmlns="http://www.w3.org/2000/svg"
   xmlns:sodipodi="http://sodipodi.sourceforge.net/DTD/sodipodi-0.dtd"
   xmlns:inkscape="http://www.inkscape.org/namespaces/inkscape"
   width="210mm"
   height="297mm"
   viewBox="0 0 744.09448819 1052.3622047"
   id="svg2"
   version="1.1"
   inkscape:version="0.91 r13725"
   sodipodi:docname="decimals0-9.svg">
  <defs
     id="defs4" />
  <sodipodi:namedview
     id="base"
     pagecolor="#ffffff"
     bordercolor="#666666"
     borderopacity="1.0"
     inkscape:pageopacity="0.0"
     inkscape:pageshadow="2"
     inkscape:zoom="0.49497475"
     inkscape:cx="-286.65203"
     inkscape:cy="477.14286"
     inkscape:document-units="px"
     inkscape:current-layer="layer1"
     showgrid="false"
     inkscape:window-width="1680"
     inkscape:window-height="970"
     inkscape:window-x="0"
     inkscape:window-y="1"
     inkscape:window-maximized="1" />
  <metadata
     id="metadata7">
    <rdf:RDF>
      <cc:Work
         rdf:about="">
        <dc:format>image/svg+xml</dc:format>
        <dc:type
           rdf:resource="http://purl.org/dc/dcmitype/StillImage" />
        <dc:title></dc:title>
      </cc:Work>
    </rdf:RDF>
  </metadata>
  <g
     inkscape:label="Layer 1"
     inkscape:groupmode="layer"
     id="layer1">
    <g
       transform="matrix(1.2244873,0,0,0.81666834,4.0406102,4.0406102)"
       style="font-style:normal;font-weight:normal;font-size:81.67354584px;line-height:125%;font-family:sans-serif;letter-spacing:0px;word-spacing:0px;fill:#000000;fill-opacity:1;stroke:none;stroke-width:1px;stroke-linecap:butt;stroke-linejoin:miter;stroke-opacity:1"
       id="text3336">
      <path
         d="m 124.20213,215.56738 q -13.99776,0 -21.08637,13.81831 -6.998885,13.72857 -6.998885,41.36518 0,27.54687 6.998885,41.36518 7.08861,13.72857 21.08637,13.72857 14.08749,0 21.08637,-13.72857 7.08861,-13.81831 7.08861,-41.36518 0,-27.63661 -7.08861,-41.36518 -6.99888,-13.81831 -21.08637,-13.81831 z m 0,-14.35668 q 22.52204,0 34.3663,17.85612 11.93399,17.76639 11.93399,51.68405 0,33.82792 -11.93399,51.68404 -11.84426,17.76639 -34.3663,17.76639 -22.52204,0 -34.456031,-17.76639 -11.84426,-17.85612 -11.84426,-51.68404 0,-33.91766 11.84426,-51.68405 11.933991,-17.85612 34.456031,-17.85612 z"
         style="font-style:normal;font-variant:normal;font-weight:normal;font-stretch:normal;font-size:183.76548767px;line-height:125%;font-family:sans-serif;-inkscape-font-specification:'sans-serif, Normal';text-align:start;writing-mode:lr-tb;text-anchor:start"
         id="path8110"
         inkscape:connector-curvature="0" />
      <path
         d="m 264.09003,322.34518 29.61064,0 0,-102.20161 -32.21279,6.46051 0,-16.51018 32.03334,-6.46051 18.1253,0 0,118.71179 29.61065,0 0,15.25397 -77.16714,0 0,-15.25397 z"
         style="font-style:normal;font-variant:normal;font-weight:normal;font-stretch:normal;font-size:183.76548767px;line-height:125%;font-family:sans-serif;-inkscape-font-specification:'sans-serif, Normal';text-align:start;writing-mode:lr-tb;text-anchor:start"
         id="path8112"
         inkscape:connector-curvature="0" />
      <path
         d="m 452.0728,322.34518 63.25911,0 0,15.25397 -85.06332,0 0,-15.25397 q 10.31886,-10.67778 28.08525,-28.62363 17.85612,-18.03558 22.43231,-23.23987 8.70374,-9.78049 12.11345,-16.51018 3.49944,-6.81942 3.49944,-13.36966 0,-10.67778 -7.53725,-17.40747 -7.44753,-6.7297 -19.47125,-6.7297 -8.52428,0 -18.03558,2.96107 -9.42157,2.96106 -20.18908,8.97292 l 0,-18.30476 q 10.94697,-4.39673 20.45827,-6.63997 9.5113,-2.24323 17.40747,-2.24323 20.81719,0 33.19982,10.4086 12.38264,10.40859 12.38264,27.81606 0,8.25509 -3.14053,15.70262 -3.05079,7.3578 -11.21615,17.40747 -2.24323,2.60215 -14.26695,15.07451 -12.02372,12.38264 -33.91765,34.72522 z"
         style="font-style:normal;font-variant:normal;font-weight:normal;font-stretch:normal;font-size:183.76548767px;line-height:125%;font-family:sans-serif;-inkscape-font-specification:'sans-serif, Normal';text-align:start;writing-mode:lr-tb;text-anchor:start"
         id="path8114"
         inkscape:connector-curvature="0" />
      <path
         d="m 140.35339,495.07397 q 13.01074,2.78161 20.27881,11.57507 7.3578,8.79347 7.3578,21.71448 0,19.83016 -13.63885,30.6874 -13.63884,10.85724 -38.76303,10.85724 -8.43455,0 -17.407473,-1.70486 -8.883194,-1.61512 -18.394494,-4.9351 l 0,-17.49721 q 7.537256,4.39674 16.51018,6.63997 8.972927,2.24323 18.753407,2.24323 17.04856,0 25.93176,-6.7297 8.97292,-6.72969 8.97292,-19.56097 0,-11.84426 -8.34482,-18.48422 -8.25509,-6.7297 -23.06041,-6.7297 l -15.61289,0 0,-14.89505 16.33072,0 q 13.36966,0 20.45827,-5.29403 7.08861,-5.38375 7.08861,-15.43343 0,-10.31886 -7.3578,-15.79234 -7.26807,-5.56322 -20.90691,-5.56322 -7.44753,0 -15.97181,1.61513 -8.524278,1.61513 -18.753411,5.02484 l 0,-16.15127 q 10.318863,-2.87133 19.291791,-4.307 9.06265,-1.43567 17.04855,-1.43567 20.63773,0 32.66145,9.42157 12.02371,9.33184 12.02371,25.30365 0,11.12643 -6.37077,18.84314 -6.37078,7.62699 -18.12531,10.58805 z"
         style="font-style:normal;font-variant:normal;font-weight:normal;font-stretch:normal;font-size:183.76548767px;line-height:125%;font-family:sans-serif;-inkscape-font-specification:'sans-serif, Normal';text-align:start;writing-mode:lr-tb;text-anchor:start"
         id="path8116"
         inkscape:connector-curvature="0" />
      <path
         d="m 310.74923,449.1326 -45.76191,71.51421 45.76191,0 0,-71.51421 z m -4.75565,-15.79235 22.79123,0 0,87.30656 19.11233,0 0,15.07451 -19.11233,0 0,31.58469 -18.03558,0 0,-31.58469 -60.47751,0 0,-17.4972 55.72186,-84.88387 z"
         style="font-style:normal;font-variant:normal;font-weight:normal;font-stretch:normal;font-size:183.76548767px;line-height:125%;font-family:sans-serif;-inkscape-font-specification:'sans-serif, Normal';text-align:start;writing-mode:lr-tb;text-anchor:start"
         id="path8118"
         inkscape:connector-curvature="0" />
      <path
         d="m 436.63937,433.34025 71.15529,0 0,15.25397 -54.55538,0 0,32.84091 q 3.94808,-1.34594 7.89617,-1.97405 3.94809,-0.71783 7.89617,-0.71783 22.43231,0 35.53278,12.29291 13.10047,12.2929 13.10047,33.28954 0,21.62475 -13.45938,33.64847 -13.45939,11.93399 -37.95547,11.93399 -8.43455,0 -17.22802,-1.43567 -8.70373,-1.43567 -18.03558,-4.307 l 0,-18.21504 q 8.07564,4.39673 16.68964,6.55024 8.61401,2.1535 18.21504,2.1535 15.52316,0 24.58581,-8.16536 9.06266,-8.16536 9.06266,-22.16313 0,-13.99776 -9.06266,-22.16312 -9.06265,-8.16536 -24.58581,-8.16536 -7.26807,0 -14.53614,1.61513 -7.17834,1.61512 -14.71559,5.02483 l 0,-67.29693 z"
         style="font-style:normal;font-variant:normal;font-weight:normal;font-stretch:normal;font-size:183.76548767px;line-height:125%;font-family:sans-serif;-inkscape-font-specification:'sans-serif, Normal';text-align:start;writing-mode:lr-tb;text-anchor:start"
         id="path8120"
         inkscape:connector-curvature="0" />
      <path
         d="m 126.44536,722.80679 q -12.20318,0 -19.38152,8.34482 -7.088608,8.34482 -7.088608,22.88095 0,14.44641 7.088608,22.88096 7.17834,8.34482 19.38152,8.34482 12.20318,0 19.29179,-8.34482 7.17834,-8.43455 7.17834,-22.88096 0,-14.53613 -7.17834,-22.88095 -7.08861,-8.34482 -19.29179,-8.34482 z m 35.98142,-56.79861 0,16.51018 q -6.81942,-3.23025 -13.8183,-4.93511 -6.90915,-1.70486 -13.72857,-1.70486 -17.94585,0 -27.45715,12.11345 -9.421571,12.11345 -10.76751,36.60953 5.29403,-7.80644 13.27993,-11.93399 7.9859,-4.21727 17.58693,-4.21727 20.18908,0 31.85388,12.29291 11.75453,12.20317 11.75453,33.28954 0,20.63773 -12.20318,33.11009 -12.20317,12.47237 -32.48198,12.47237 -23.23987,0 -35.532781,-17.76639 -12.292906,-17.85612 -12.292906,-51.68404 0,-31.76416 15.074512,-50.6073 15.074515,-18.93287 40.467885,-18.93287 6.81943,0 13.72858,1.34594 6.99888,1.34594 14.53613,4.03782 z"
         style="font-style:normal;font-variant:normal;font-weight:normal;font-stretch:normal;font-size:183.76548767px;line-height:125%;font-family:sans-serif;-inkscape-font-specification:'sans-serif, Normal';text-align:start;writing-mode:lr-tb;text-anchor:start"
         id="path8122"
         inkscape:connector-curvature="0" />
      <path
         d="m 256.37331,663.04711 86.14007,0 0,7.71672 -48.63325,126.24904 -18.93287,0 45.76192,-118.71179 -64.33587,0 0,-15.25397 z"
         style="font-style:normal;font-variant:normal;font-weight:normal;font-stretch:normal;font-size:183.76548767px;line-height:125%;font-family:sans-serif;-inkscape-font-specification:'sans-serif, Normal';text-align:start;writing-mode:lr-tb;text-anchor:start"
         id="path8124"
         inkscape:connector-curvature="0" />
      <path
         d="m 475.22294,733.39484 q -12.92101,0 -20.36854,6.90915 -7.3578,6.90915 -7.3578,19.0226 0,12.11345 7.3578,19.0226 7.44753,6.90915 20.36854,6.90915 12.92101,0 20.36854,-6.90915 7.44753,-6.99888 7.44753,-19.0226 0,-12.11345 -7.44753,-19.0226 -7.3578,-6.90915 -20.36854,-6.90915 z m -18.12531,-7.71672 q -11.6648,-2.87133 -18.21503,-10.85723 -6.46051,-7.98591 -6.46051,-19.47125 0,-16.06153 11.39562,-25.39338 11.48534,-9.33184 31.40523,-9.33184 20.00962,0 31.40524,9.33184 11.39561,9.33185 11.39561,25.39338 0,11.48534 -6.55024,19.47125 -6.4605,7.9859 -18.03557,10.85723 13.10047,3.0508 20.36853,11.93399 7.3578,8.8832 7.3578,21.71448 0,19.47124 -11.93399,29.87984 -11.84426,10.40859 -34.00738,10.40859 -22.16312,0 -34.09711,-10.40859 -11.84426,-10.4086 -11.84426,-29.87984 0,-12.83128 7.3578,-21.71448 7.35779,-8.88319 20.45826,-11.93399 z m -6.63996,-28.62362 q 0,10.40859 6.46051,16.24099 6.55023,5.8324 18.30476,5.8324 11.6648,0 18.21504,-5.8324 6.63996,-5.8324 6.63996,-16.24099 0,-10.4086 -6.63996,-16.241 -6.55024,-5.8324 -18.21504,-5.8324 -11.75453,0 -18.30476,5.8324 -6.46051,5.8324 -6.46051,16.241 z"
         style="font-style:normal;font-variant:normal;font-weight:normal;font-stretch:normal;font-size:183.76548767px;line-height:125%;font-family:sans-serif;-inkscape-font-specification:'sans-serif, Normal';text-align:start;writing-mode:lr-tb;text-anchor:start"
         id="path8126"
         inkscape:connector-curvature="0" />
      <path
         d="m 85.977471,1023.9381 0,-16.5102 q 6.819422,3.2303 13.818303,4.9352 6.998876,1.7048 13.728576,1.7048 17.94585,0 27.36742,-12.0237 9.5113,-12.11346 10.85723,-36.69927 -5.20429,7.71671 -13.19019,11.84426 -7.98591,4.12754 -17.67666,4.12754 -20.09935,0 -31.853885,-12.11344 -11.664802,-12.20318 -11.664802,-33.28955 0,-20.63773 12.203177,-33.11009 12.20318,-12.47237 32.48199,-12.47237 23.23987,0 35.44305,17.85612 12.2929,17.76639 12.2929,51.68405 0,31.67442 -15.07451,50.60725 -14.98478,18.8432 -40.37816,18.8432 -6.81942,0 -13.8183,-1.346 -6.998883,-1.3459 -14.536139,-4.0378 z m 36.071159,-56.79859 q 12.20317,0 19.29178,-8.34482 7.17834,-8.34482 7.17834,-22.88095 0,-14.44641 -7.17834,-22.79123 -7.08861,-8.43455 -19.29178,-8.43455 -12.20318,0 -19.38152,8.43455 -7.088611,8.34482 -7.088611,22.79123 0,14.53613 7.088611,22.88095 7.17834,8.34482 19.38152,8.34482 z"
         style="font-style:normal;font-variant:normal;font-weight:normal;font-stretch:normal;font-size:183.76548767px;line-height:125%;font-family:sans-serif;-inkscape-font-specification:'sans-serif, Normal';text-align:start;writing-mode:lr-tb;text-anchor:start"
         id="path8128"
         inkscape:connector-curvature="0" />
    </g>
  </g>
</svg>
